<svg width="30" height="30" viewBox="0 0 30 30" fill="none" xmlns="http://www.w3.org/2000/svg">
<path d="M26.25 18.75V22.5H30V25H26.25V28.75H23.75V25H20V22.5H23.75V18.75H26.25ZM26.2603 3.75C26.945 3.75 27.5 4.30619 27.5 4.99175L27.5009 16.6771C26.7186 16.4005 25.8769 16.25 25 16.25V6.25H5L5.00125 23.75L16.6161 12.1339C17.066 11.6826 17.775 11.6478 18.2654 12.029L18.3831 12.1346L22.8151 16.5732C19.7388 17.5086 17.5 20.3679 17.5 23.75C17.5 24.6269 17.6505 25.4686 17.9271 26.2509L3.73975 26.25C3.05506 26.25 2.5 25.6939 2.5 25.0082V4.99175C2.5 4.30595 3.06914 3.75 3.73975 3.75H26.2603ZM10 8.75C11.3807 8.75 12.5 9.86929 12.5 11.25C12.5 12.6307 11.3807 13.75 10 13.75C8.61929 13.75 7.5 12.6307 7.5 11.25C7.5 9.86929 8.61929 8.75 10 8.75Z" fill="#BCC2C4"/>
</svg>
