<svg width="26" height="26" viewBox="0 0 26 26" fill="none" xmlns="http://www.w3.org/2000/svg">
<path d="M12.9994 2.16699C18.9824 2.16699 23.8327 7.01724 23.8327 13.0003C23.8327 18.9834 18.9824 23.8337 12.9994 23.8337C7.01626 23.8337 2.16602 18.9834 2.16602 13.0003C2.16602 7.01724 7.01626 2.16699 12.9994 2.16699ZM13.1724 17.3337C10.9673 17.3337 8.98216 18.2748 7.59651 19.7772C9.07811 20.96 10.9562 21.667 12.9994 21.667C15.133 21.667 17.0864 20.896 18.5965 19.6174C17.2196 18.2083 15.2981 17.3337 13.1724 17.3337ZM12.9994 4.33366C8.21288 4.33366 4.33268 8.21386 4.33268 13.0003C4.33268 14.9618 4.98431 16.7711 6.08288 18.2235C7.86044 16.3414 10.3792 15.167 13.1724 15.167C15.8638 15.167 18.3004 16.2575 20.0646 18.0207C21.073 16.6043 21.666 14.8716 21.666 13.0003C21.666 8.21386 17.7858 4.33366 12.9994 4.33366ZM12.9994 5.41699C15.3925 5.41699 17.3327 7.35709 17.3327 9.75033C17.3327 12.1435 15.3925 14.0837 12.9994 14.0837C10.6061 14.0837 8.66602 12.1435 8.66602 9.75033C8.66602 7.35709 10.6061 5.41699 12.9994 5.41699ZM12.9994 7.58366C11.8027 7.58366 10.8327 8.55371 10.8327 9.75033C10.8327 10.947 11.8027 11.917 12.9994 11.917C14.196 11.917 15.166 10.947 15.166 9.75033C15.166 8.55371 14.196 7.58366 12.9994 7.58366Z" fill="#D5C173"/>
</svg>
