<svg width="26" height="26" viewBox="0 0 26 26" fill="none" xmlns="http://www.w3.org/2000/svg">
<path d="M3.25 20.042V5.41699C3.25 3.62207 4.70508 2.16699 6.5 2.16699H21.6667C22.265 2.16699 22.75 2.65202 22.75 3.25033V22.7503C22.75 23.3487 22.265 23.8337 21.6667 23.8337H7.04167C4.94758 23.8337 3.25 22.1361 3.25 20.042ZM20.5833 21.667V18.417H7.04167C6.1442 18.417 5.41667 19.1446 5.41667 20.042C5.41667 20.9394 6.1442 21.667 7.04167 21.667H20.5833ZM10.8333 4.33366H6.5C5.9017 4.33366 5.41667 4.81869 5.41667 5.41699V16.6152C5.90918 16.3812 6.46013 16.2503 7.04167 16.2503H20.5833V4.33366H18.4167V13.0003L14.625 10.8337L10.8333 13.0003V4.33366Z" fill="#D5C173"/>
</svg>
