<svg width="26" height="26" viewBox="0 0 26 26" fill="none" xmlns="http://www.w3.org/2000/svg">
<path d="M19.5329 18.0019L24.1725 22.6415L22.6405 24.1735L18.0009 19.5339C16.3327 20.8686 14.217 21.667 11.916 21.667C6.53402 21.667 2.16602 17.299 2.16602 11.917C2.16602 6.53499 6.53402 2.16699 11.916 2.16699C17.298 2.16699 21.666 6.53499 21.666 11.917C21.666 14.218 20.8676 16.3336 19.5329 18.0019ZM17.3594 17.198C18.6841 15.8328 19.4993 13.9706 19.4993 11.917C19.4993 7.7272 16.1058 4.33366 11.916 4.33366C7.72622 4.33366 4.33268 7.7272 4.33268 11.917C4.33268 16.1068 7.72622 19.5003 11.916 19.5003C13.9696 19.5003 15.8318 18.6851 17.197 17.3604L17.3594 17.198Z" fill="#D5C173"/>
</svg>
