<svg width="20" height="20" viewBox="0 0 20 20" fill="none" xmlns="http://www.w3.org/2000/svg">
<g clip-path="url(#clip0_214_789)">
<path d="M13.7493 2.5C16.2807 2.5 18.3327 4.58333 18.3327 7.5C18.3327 13.3333 12.0827 16.6667 9.99935 17.9167C7.91602 16.6667 1.66602 13.3333 1.66602 7.5C1.66602 4.58333 3.74935 2.5 6.24935 2.5C7.79932 2.5 9.16602 3.33333 9.99935 4.16667C10.8327 3.33333 12.1993 2.5 13.7493 2.5ZM10.7776 15.5032C11.5123 15.0404 12.1743 14.5796 12.7951 14.0858C15.2774 12.1108 16.666 9.95292 16.666 7.5C16.666 5.53397 15.3852 4.16667 13.7493 4.16667C12.8528 4.16667 11.8821 4.64092 11.1778 5.34518L9.99935 6.52369L8.82085 5.34518C8.11658 4.64092 7.14593 4.16667 6.24935 4.16667C4.6319 4.16667 3.33268 5.54708 3.33268 7.5C3.33268 9.95292 4.72124 12.1108 7.20363 14.0858C7.82435 14.5796 8.48643 15.0404 9.2211 15.5032C9.46985 15.6599 9.71693 15.8108 9.99935 15.9793C10.2818 15.8108 10.5288 15.6599 10.7776 15.5032Z" fill="#65000F"/>
<path d="M13.7493 2.5C16.2807 2.5 18.3327 4.58333 18.3327 7.5C18.3327 13.3333 12.0827 16.6667 9.99935 17.9167C7.91602 16.6667 1.66602 13.3333 1.66602 7.5C1.66602 4.58333 3.74935 2.5 6.24935 2.5C7.79932 2.5 9.16602 3.33333 9.99935 4.16667C10.8327 3.33333 12.1993 2.5 13.7493 2.5Z" fill="#65000F"/>
</g>
<defs>
<clipPath id="clip0_214_789">
<rect width="20" height="20" fill="white"/>
</clipPath>
</defs>
</svg>
