<svg width="14" height="14" viewBox="0 0 14 14" fill="none" xmlns="http://www.w3.org/2000/svg">
<g clip-path="url(#clip0_268_1990)">
<path d="M10.4298 11.2561C9.43736 11.8853 8.26043 12.2497 6.99839 12.2497C3.85295 12.2497 1.23613 9.9865 0.6875 6.99971C0.94223 5.61291 1.64281 4.38212 2.63515 3.46143L0.811178 1.63746L1.63614 0.8125L13.1856 12.3619L12.3606 13.1869L10.4298 11.2561ZM3.46064 4.28692C2.68547 4.99302 2.12026 5.93046 1.87817 6.99971C2.41334 9.36332 4.52756 11.083 6.99839 11.083C7.93137 11.083 8.81354 10.8378 9.57905 10.4053L8.39588 9.22215C7.99122 9.47713 7.51201 9.62471 6.99839 9.62471C5.54862 9.62471 4.37336 8.44941 4.37336 6.99971C4.37336 6.48603 4.52089 6.00682 4.77589 5.60217L3.46064 4.28692ZM7.53132 8.3576L5.64048 6.46678C5.57564 6.63186 5.54003 6.81159 5.54003 6.99971C5.54003 7.80512 6.19298 8.45805 6.99839 8.45805C7.18645 8.45805 7.36624 8.4224 7.53132 8.3576ZM12.1355 9.67855L11.3009 8.84392C11.6835 8.29856 11.9655 7.67545 12.1185 6.99971C11.5834 4.63603 9.46915 2.91636 6.99839 2.91636C6.50494 2.91636 6.02574 2.98494 5.5705 3.11353L4.64998 2.19302C5.37728 1.90686 6.16947 1.74969 6.99839 1.74969C10.1438 1.74969 12.7606 4.01288 13.3092 6.99971C13.1271 7.99115 12.7171 8.9029 12.1355 9.67855ZM6.83657 4.3796C6.89006 4.37634 6.94402 4.37469 6.99839 4.37469C8.44809 4.37469 9.62339 5.54994 9.62339 6.99971C9.62339 7.05402 9.62169 7.10798 9.61849 7.16147L6.83657 4.3796Z" fill="#65000F"/>
</g>
<defs>
<clipPath id="clip0_268_1990">
<rect width="14" height="14" fill="white"/>
</clipPath>
</defs>
</svg>
