<svg width="20" height="20" viewBox="0 0 20 20" fill="none" xmlns="http://www.w3.org/2000/svg">
<path d="M10.0013 18.3337C5.39893 18.3337 1.66797 14.6027 1.66797 10.0003C1.66797 5.39795 5.39893 1.66699 10.0013 1.66699C14.6036 1.66699 18.3346 5.39795 18.3346 10.0003C18.3346 14.6027 14.6036 18.3337 10.0013 18.3337ZM10.0013 16.667C13.6832 16.667 16.668 13.6822 16.668 10.0003C16.668 6.31843 13.6832 3.33366 10.0013 3.33366C6.3194 3.33366 3.33464 6.31843 3.33464 10.0003C3.33464 13.6822 6.3194 16.667 10.0013 16.667ZM10.8346 10.0003H14.168V11.667H9.16797V5.83366H10.8346V10.0003Z" fill="#050505"/>
</svg>
