<svg width="436" height="194" viewBox="0 0 436 194" fill="none" xmlns="http://www.w3.org/2000/svg">
<path d="M174.25 157.91V128.5H261.25V157.91C258.75 169.089 247.95 192.674 218.75 193.5C189.55 194.326 176.417 169.777 174.25 157.91Z" fill="#E6D07C"/>
<path d="M0.25 157.91V128.5H87.25V157.91C84.75 169.089 73.95 192.674 44.75 193.5C15.55 194.326 2.41667 169.777 0.25 157.91Z" fill="#E6D07C"/>
<path d="M348.25 157.91V128.5H435.25V157.91C432.75 169.089 421.95 192.674 392.75 193.5C363.55 194.326 350.417 169.777 348.25 157.91Z" fill="#E6D07C"/>
<path d="M261.25 157.91V128.5H348.25V157.91C345.75 169.089 334.95 192.674 305.75 193.5C276.55 194.326 263.417 169.777 261.25 157.91Z" fill="#65000F"/>
<path d="M87.25 157.91V128.5H174.25V157.91C171.75 169.089 160.95 192.674 131.75 193.5C102.55 194.326 89.4167 169.777 87.25 157.91Z" fill="#65000F"/>
<path d="M194 0L174 129H261L243.5 0H194Z" fill="#FFEDA8"/>
<path d="M128.5 0L87 129H174L194 0H128.5Z" fill="#710E1D"/>
<path d="M306.5 0L348 129H261L241 0H306.5Z" fill="#710E1D"/>
<path d="M64.751 0L0 129H87.3385L129 0H64.751Z" fill="#FFEDA8"/>
<path d="M370.734 0L435 129H348.001L306 0H370.734Z" fill="#FFEDA8"/>
<path d="M0 0V129L65 0H0Z" fill="#710E1D"/>
<path d="M436 0L435.5 129L371 0H436Z" fill="#710E1D"/>
</svg>
